<?xml version="1.0" encoding="iso-8859-1"?>
<!-- Generator: Adobe Illustrator 19.0.0, SVG Export Plug-In . SVG Version: 6.00 Build 0)  -->
<svg version="1.1" id="Layer_1" xmlns="http://www.w3.org/2000/svg" xmlns:xlink="http://www.w3.org/1999/xlink" x="0px" y="0px"
	 viewBox="0 0 512 512" style="enable-background:new 0 0 512 512;" xml:space="preserve">
<path style="fill:#02AF92;" d="M501.459,183.129C470.073,77.247,372.065,0,256,0C114.616,0,0,114.616,0,256
	c0,129.035,95.474,235.755,219.629,253.417L501.459,183.129z"/>
<g>
	<path style="fill:#02967D;" d="M512,256c0-25.32-3.694-49.773-10.541-72.871l-82.955-82.955L113.889,403.676l105.74,105.74
		C231.512,511.106,243.651,512,256,512C397.385,512,512,397.385,512,256z"/>
	
		<rect x="115.808" y="241.189" transform="matrix(-0.7071 0.7071 -0.7071 -0.7071 538.3426 501.9414)" style="fill:#02967D;" width="98.815" height="242.552"/>
</g>
<path style="fill:#1A534A;" d="M406.261,205.913v72.348L456.348,256C456.348,228.338,433.923,205.913,406.261,205.913z"/>
<path style="fill:#263230;" d="M406.261,256v50.087c27.662,0,50.087-22.424,50.087-50.087H406.261z"/>
<rect x="128" y="278.261" style="fill:#FFFFFF;" width="55.652" height="89.043"/>
<polygon style="fill:#263230;" points="111.304,311.652 133.565,411.826 161.391,411.826 161.391,311.652 "/>
<path style="fill:#1A534A;" d="M105.739,311.652V384c0,15.368,12.458,27.826,27.826,27.826V311.652H105.739z"/>
<polygon style="fill:#616F6D;" points="385.113,100.174 373.983,278.261 418.504,256 418.504,100.174 "/>
<polygon style="fill:#394B48;" points="373.983,256 385.113,411.826 418.504,411.826 418.504,256 "/>
<polygon style="fill:#FFFFFF;" points="200.348,178.087 178.087,278.261 385.113,256 385.113,100.174 "/>
<polygon style="fill:#B1EAE5;" points="178.087,256 200.348,333.913 385.113,411.826 385.113,256 "/>
<polygon style="fill:#1A534A;" points="44.522,200.348 44.522,256 89.043,278.261 89.043,200.348 "/>
<rect x="44.522" y="256" style="fill:#263230;" width="44.522" height="55.652"/>
<polygon style="fill:#B0B7B6;" points="66.783,178.087 66.783,256 133.565,278.261 200.348,256 200.348,178.087 "/>
<rect x="66.783" y="256" style="fill:#889391;" width="133.565" height="77.913"/>
<g>
</g>
<g>
</g>
<g>
</g>
<g>
</g>
<g>
</g>
<g>
</g>
<g>
</g>
<g>
</g>
<g>
</g>
<g>
</g>
<g>
</g>
<g>
</g>
<g>
</g>
<g>
</g>
<g>
</g>
</svg>
